<?xml version="1.0" encoding="utf-8"?>
<!-- Generator: Adobe Illustrator 22.0.1, SVG Export Plug-In . SVG Version: 6.00 Build 0)  -->
<svg version="1.1" id="Livello_1" xmlns="http://www.w3.org/2000/svg" xmlns:xlink="http://www.w3.org/1999/xlink" x="0px" y="0px"
	 viewBox="0 0 512 512" width="512" height="512" style="enable-background:new 0 0 512 512;" xml:space="preserve">
<style type="text/css">
	.st0{fill:none;stroke:#000000;stroke-miterlimit:10;}
	.st1{opacity:0.7;fill:#F4973F;}
	.st2{opacity:0.7;fill:#D04391;}
	.st3{opacity:0.7;fill:#E52421;}
	.st4{fill:#F4973F;}
	.st5{fill:#E52421;}
</style>
<path class="st0" d="M168.9,63.9"/>
<path class="st0" d="M3,401.6"/>
<path class="st0" d="M295.2,127.8"/>
<path class="st0" d="M101.7,458.7"/>
<path class="st0" d="M340.8,437.6"/>
<path class="st0" d="M164.6,129.5"/>
<path class="st0" d="M486.6,347.9"/>
<path class="st0" d="M289.3,61"/>
<path class="st0" d="M63.1,216.4"/>
<path class="st0" d="M451.8,322.4"/>
<path class="st0" d="M372.7,470.6"/>
<path class="st0" d="M28.8,304.2"/>
<polygon class="st1" points="313.5,134.5 188.9,64.9 33.9,419.5 111.1,464.9 "/>
<polygon class="st2" points="473.5,358.7 309.2,60.2 181.7,118.8 324.3,442.1 "/>
<polygon class="st3" points="103.2,230 60.3,315.9 366,475.7 426.7,316.3 "/>
<circle class="st4" cx="75.3" cy="437" r="45"/>
<circle class="st3" cx="397.1" cy="396.7" r="85"/>
<ellipse class="st5" cx="87.5" cy="274.4" rx="48.9" ry="47.9"/>
<ellipse class="st2" cx="250.5" cy="100.3" rx="71.6" ry="70"/>
</svg>
